<svg xmlns="http://www.w3.org/2000/svg" viewBox="0 0 64 64" fill="none">
  <!-- Shield shape -->
  <path d="M32 4L8 16v12c0 14.2 10.3 27.4 24 31 13.7-3.6 24-16.8 24-31V16L32 4z" fill="#0d0d12" stroke="#ffd700" stroke-width="2"/>
  <!-- Network nodes -->
  <circle cx="24" cy="28" r="4" fill="#ffd700" opacity="0.9"/>
  <circle cx="40" cy="28" r="4" fill="#ffd700" opacity="0.9"/>
  <circle cx="32" cy="18" r="3" fill="#ffd700" opacity="0.7"/>
  <circle cx="32" cy="40" r="3" fill="#ffd700" opacity="0.7"/>
  <circle cx="20" cy="38" r="2.5" fill="#ffd700" opacity="0.6"/>
  <circle cx="44" cy="38" r="2.5" fill="#ffd700" opacity="0.6"/>
  <!-- Connections -->
  <line x1="24" y1="28" x2="32" y2="18" stroke="#ffd700" stroke-width="1" opacity="0.5"/>
  <line x1="40" y1="28" x2="32" y2="18" stroke="#ffd700" stroke-width="1" opacity="0.5"/>
  <line x1="24" y1="28" x2="20" y2="38" stroke="#ffd700" stroke-width="1" opacity="0.5"/>
  <line x1="40" y1="28" x2="44" y2="38" stroke="#ffd700" stroke-width="1" opacity="0.5"/>
  <line x1="32" y1="40" x2="24" y2="28" stroke="#ffd700" stroke-width="1" opacity="0.5"/>
  <line x1="32" y1="40" x2="40" y2="28" stroke="#ffd700" stroke-width="1" opacity="0.5"/>
  <line x1="32" y1="40" x2="20" y2="38" stroke="#ffd700" stroke-width="1" opacity="0.3"/>
  <line x1="32" y1="40" x2="44" y2="38" stroke="#ffd700" stroke-width="1" opacity="0.3"/>
  <!-- Center dot -->
  <circle cx="32" cy="28" r="2" fill="#ffd700"/>
</svg>
